<svg width="50" height="50" viewBox="0 0 50 50" fill="none" xmlns="http://www.w3.org/2000/svg">
<path fill-rule="evenodd" clip-rule="evenodd" d="M21.7149 2.0332L0 16.4314L21.8346 22.5198L12.152 20.8455C11.9243 21.9997 11.8947 23.1635 12.0179 24.3327C12.7111 30.9142 18.61 35.6867 25.1917 34.9924C31.7729 34.2983 36.5454 28.4006 35.8514 21.8188C35.2358 15.9792 30.5225 11.5638 24.8709 11.1275C29.4057 10.9213 33.5311 13.2908 35.7268 17.0083L45.9561 11.5837L21.7149 2.0332Z" fill="#000D65" style="fill:#000D65;fill:color(display-p3 0.0000 0.0510 0.3961);fill-opacity:1;"/>
<path fill-rule="evenodd" clip-rule="evenodd" d="M35.6334 43.0935L40.8027 49.4771H49.5752L40.946 38.821C46.5993 32.707 48.5592 23.888 45.9144 15.895L40.6928 18.6614C43.8612 30.474 34.1007 41.6182 22.1548 40.3629C12.9714 39.3977 6.22254 31.4195 6.67054 22.309L0.985484 20.6879C-0.383449 33.3338 8.91163 44.7991 21.549 46.1274C26.6448 46.663 31.5275 45.4995 35.6334 43.0935Z" fill="#FF8300" style="fill:#FF8300;fill:color(display-p3 1.0000 0.5137 0.0000);fill-opacity:1;"/>
</svg>
