<svg width="153" height="35" viewBox="0 0 153 35" fill="none" xmlns="http://www.w3.org/2000/svg">
<path fill-rule="evenodd" clip-rule="evenodd" d="M9.84627 23.1868C14.2756 23.1868 17.5973 20.9075 17.5973 16.967C17.5973 12.7982 14.4711 11.4306 10.9861 10.5842L8.54374 9.99723C6.16694 9.41163 4.66866 8.72804 4.66866 6.80591C4.66866 5.14511 6.16694 4.16846 8.25094 4.16846C10.9213 4.16846 13.266 5.34112 14.4711 8.04378L17.2391 5.40609C15.676 2.40995 12.4847 0.749023 8.47896 0.749023C4.37563 0.749023 0.825887 2.96367 0.825887 7.06673C0.825887 11.2026 4.11509 12.6029 7.20882 13.2542L9.26029 13.7102C12.0938 14.3286 13.8523 14.9155 13.8523 17.0319C13.8523 19.0186 12.0937 19.8 9.91174 19.8C7.24161 19.8 3.9523 18.5623 2.78003 15.3711L0.174805 18.009C1.86814 21.6886 5.67841 23.1868 9.84627 23.1868ZM26.2671 23.1868C30.2398 23.1868 32.7476 20.9398 33.5944 17.9438L30.3052 16.3154C29.947 18.5949 28.8071 20.1252 26.3322 20.1252C23.8247 20.1252 22.2939 18.2691 22.2939 14.9478C22.2939 11.5935 23.8247 9.73698 26.3322 9.73698C28.7746 9.73698 29.947 11.2678 30.3052 13.5473L33.5944 11.9195C32.7476 8.92338 30.2398 6.67594 26.2671 6.67594C21.5452 6.67594 18.5817 9.99722 18.5817 14.9478C18.5817 19.865 21.5452 23.1868 26.2671 23.1868ZM38.519 22.8612V13.971C38.519 11.3656 39.4309 9.63965 42.1012 9.63965C44.5436 9.63965 45.1954 10.975 45.1954 12.9285V22.8612H48.875V11.8215C48.875 8.5326 46.986 6.67594 43.8923 6.67594C40.7334 6.67594 39.1052 8.8254 38.519 11.3326V1.04207H34.8719V22.8612H38.519ZM57.7078 23.1868C62.332 23.1868 65.458 19.865 65.458 14.9478C65.458 9.99722 62.332 6.67594 57.7078 6.67594C53.1484 6.67594 50.0219 9.99722 50.0219 14.9478C50.0219 19.865 53.1484 23.1868 57.7078 23.1868ZM57.74 20.1584C55.3954 20.1584 53.7672 18.5948 53.7672 14.9478C53.7672 11.2678 55.3954 9.70443 57.74 9.70443C60.117 9.70443 61.7457 11.2678 61.7457 14.9478C61.7457 18.5948 60.117 20.1584 57.74 20.1584ZM70.7734 22.8612V1.04207H67.1263V22.8612H70.7734ZM76.4473 23.1868C79.7691 23.1868 81.2998 20.7122 81.7883 18.6278V19.8C81.7883 22.0794 83.1234 22.8612 84.8167 22.8612H87.0641V19.7347H86.0543C85.468 19.7347 85.2075 19.5068 85.2075 18.7904V12.8311C85.2075 8.9234 82.9931 6.67594 79.0525 6.67594C75.5357 6.67594 73.0605 8.49978 71.8232 10.1927L74.005 12.7982C74.917 11.1372 76.5776 9.8999 78.6943 9.8999C80.8767 9.8999 81.5929 10.975 81.7229 12.5702L76.4148 14.8175C73.8421 15.8271 72.2791 17.1947 72.2791 19.4417C72.2791 21.7211 73.8421 23.1868 76.4473 23.1868ZM75.796 18.8879C75.796 18.0738 76.3499 17.5201 77.7175 16.9015L81.7883 15.0778V16.7716C81.7883 18.9206 80.1599 20.3535 77.7502 20.3535C76.4148 20.3535 75.796 19.7999 75.796 18.8879ZM91.9884 22.8612V14.1333C91.9884 11.4958 93.682 9.41162 95.5056 9.41162C96.5804 9.41162 97.0035 10.1279 97.0035 11.0072C97.0035 11.9195 96.5152 12.9611 95.9944 13.4822H99.7389C100.032 12.9934 100.455 11.854 100.455 10.3232C100.455 7.97858 98.9904 6.67594 97.0035 6.67594C94.1703 6.67594 92.5747 8.95564 91.9884 11.4958V7.00122H88.3411V22.8612H91.9884ZM107.432 23.1868C110.786 23.1868 113.424 21.6238 113.424 18.4972C113.424 16.2177 112.121 14.7848 108.572 13.873L106.65 13.3842C104.501 12.8311 103.654 12.4077 103.654 11.2678C103.654 10.1928 104.599 9.60669 105.999 9.60669C108.051 9.60669 109.744 10.649 110.851 12.4076L113.001 10.1279C112.024 8.3366 109.646 6.7085 106.26 6.7085C102.612 6.7085 100.235 8.49983 100.235 11.4633C100.235 14.3616 102.547 15.4686 105.055 16.0549L107.172 16.5762C108.93 16.9992 110.135 17.3901 110.135 18.5623C110.135 19.7022 109.125 20.2559 107.562 20.2559C104.729 20.2559 102.775 18.6278 101.896 17.0319L99.7465 19.3114C100.951 21.8191 104.045 23.1868 107.432 23.1868ZM118.447 22.8612V13.971C118.447 11.3656 119.358 9.63965 122.029 9.63965C124.471 9.63965 125.123 10.975 125.123 12.9285V22.8612H128.802V11.8215C128.802 8.5326 126.913 6.67594 123.82 6.67594C120.661 6.67594 119.033 8.8254 118.447 11.3326V1.04207H114.799V22.8612H118.447ZM134.672 4.75431V1.04207H131.024V4.75431H134.672ZM134.672 22.8612V7.00122H131.024V22.8612H134.672ZM140.638 34.0118V18.6278C141.159 21.07 142.494 23.1868 145.654 23.1868C149.561 23.1868 152.037 20.0279 152.037 14.9155C152.037 9.80193 149.561 6.64364 145.718 6.64364C142.56 6.64364 141.159 8.76034 140.638 11.2353V7.00122H136.991V34.0118H140.638ZM140.638 15.8919V13.9378C140.638 11.3326 141.713 9.60669 144.286 9.60669C146.565 9.60669 148.291 11.3326 148.291 14.9155C148.291 18.4971 146.565 20.2232 144.286 20.2232C141.713 20.2232 140.638 18.4971 140.638 15.8919Z" fill="#000D65" style="fill:#000D65;fill:color(display-p3 0.0000 0.0510 0.3961);fill-opacity:1;"/>
<path fill-rule="evenodd" clip-rule="evenodd" d="M70.4307 33.8311L68.6011 31.2633C69.6926 30.9103 70.3132 30.0863 70.3132 28.9093C70.3132 27.3045 69.1574 26.3416 67.2528 26.3416H64.4496V33.8311H65.2414V31.4556H67.2528C67.4668 31.4556 67.6596 31.4449 67.8519 31.4234L69.564 33.8311H70.4307ZM67.2318 30.7817H65.2414V27.026H67.2318C68.7295 27.026 69.5214 27.7109 69.5214 28.9093C69.5214 30.0863 68.7295 30.7817 67.2318 30.7817ZM77.5574 33.1462V30.3645H81.4307V29.6903H77.5574V27.026H81.9016V26.3416H76.7656V33.8311H82.0619V33.1462H77.5574ZM93.736 32.6114C93.1582 33.0286 92.4948 33.1889 91.7779 33.1889C89.9376 33.1889 88.5788 31.8623 88.5788 30.0863C88.5788 28.2993 89.9376 26.9833 91.7884 26.9833C92.666 26.9833 93.4148 27.2404 94.0463 27.8609L94.5384 27.3578C93.8751 26.6409 92.8906 26.2773 91.7563 26.2773C89.4667 26.2773 87.7976 27.8931 87.7976 30.0863C87.7976 32.2796 89.4667 33.8953 91.7458 33.8953C92.7836 33.8953 93.7894 33.5744 94.4958 32.943V30.0863H93.736V32.6114ZM101.312 33.8311H102.104V26.3416H101.312V33.8311ZM112.398 33.8953C114.645 33.8953 116.324 32.2796 116.324 30.0863C116.324 27.8931 114.645 26.2773 112.398 26.2773C110.129 26.2773 108.46 27.9036 108.46 30.0863C108.46 32.2691 110.129 33.8953 112.398 33.8953ZM112.398 33.1889C110.59 33.1889 109.242 31.8729 109.242 30.0863C109.242 28.2993 110.59 26.9833 112.398 26.9833C114.195 26.9833 115.533 28.2993 115.533 30.0863C115.533 31.8729 114.195 33.1889 112.398 33.1889ZM128.159 26.3416V32.4186L123.334 26.3416H122.681V33.8311H123.473V27.7536L128.287 33.8311H128.94V26.3416H128.159Z" fill="#000D65" style="fill:#000D65;fill:color(display-p3 0.0000 0.0510 0.3961);fill-opacity:1;"/>
</svg>
